<svg width="390" height="229" xmlns="http://www.w3.org/2000/svg" version="1.1" xml:space="preserve">
 <g>
  <title>Layer 1</title>
  <rect id="svg_5" height="17.89137" width="8.94569" y="146.20287" x="144.85144" stroke="#d90368" fill="#d90368"/>
  <g id="svg_1">
   <path class="st0" d="m132.5,191.1l4.1,0l-4.1,0l0,-7.7c0.1,0 0.1,0 0.1,0c0.1,0 0.3,0 0.4,0c1.9,-0.1 3.5,-0.9 4.8,-2.2c1.5,-1.4 2.2,-3.2 2.2,-5.3c0,-2.1 -0.7,-3.8 -2.2,-5.3c-1.3,-1.4 -2.9,-2.1 -4.8,-2.3c-0.1,0 -0.2,0 -0.4,0c0,0 -0.1,0 -0.1,0l0,-7.4l4.1,0l-4.1,0l0,-7.6c0.1,0 0.1,0 0.1,0c0.1,0 0.3,0 0.4,0c1.9,-0.1 3.5,-0.9 4.8,-2.2c1.5,-1.5 2.2,-3.2 2.2,-5.3c0,-2.1 -0.7,-3.8 -2.2,-5.3c-1.3,-1.4 -2.9,-2.1 -4.8,-2.3c-0.1,0 -0.2,0 -0.4,0c0,0 -0.1,0 -0.1,0l0,-7.4l0,-7.8c0.1,0 0.1,0 0.1,0c0.1,0 0.3,0 0.4,0c1.9,-0.2 3.5,-0.9 4.8,-2.2c1.5,-1.5 2.2,-3.3 2.2,-5.4c0,-2.1 -0.7,-3.8 -2.2,-5.3c-1.3,-1.4 -2.9,-2.1 -4.8,-2.2c-0.1,0 -0.2,0 -0.4,0c0,0 -0.1,0 -0.1,0l0,-7.4l4.1,0l-4.1,0l0,-7.7c0.1,0 0.1,0 0.1,0c0.1,0 0.3,0 0.4,0c1.9,-0.1 3.5,-0.9 4.8,-2.2c1.5,-1.5 2.2,-3.3 2.2,-5.4c0,-2.1 -0.7,-3.8 -2.2,-5.3c-1.3,-1.4 -2.9,-2.1 -4.8,-2.2c-0.1,0 -0.2,0 -0.4,0c0,0 -0.1,0 -0.1,0l0,-7.5l4.1,0l-4.1,0l0,-7.6c0.1,0 0.1,0 0.1,0c0.1,0 0.3,0 0.4,0c1.9,-0.1 3.5,-0.9 4.8,-2.2c1.5,-1.4 2.2,-3.2 2.2,-5.3c0,-2.1 -0.7,-3.8 -2.2,-5.3c-1.3,-1.4 -2.9,-2.1 -4.8,-2.3c-0.1,0 -0.2,0 -0.4,0c0,0 -0.1,0 -0.1,0l0,-7.5l4.1,0l-4.1,0l0,-7.7l14.3,0c7.9,0.1 15.6,1.7 22.9,4.9c6.9,3 13.1,7.3 18.4,12.7c5.4,5.4 9.5,11.6 12.5,18.6c2.8,6.8 4.3,13.9 4.5,21.3l0,3c-0.2,7.5 -1.7,14.6 -4.5,21.4c-3,7.1 -7.1,13.4 -12.5,18.7c-5.3,5.4 -11.5,9.6 -18.4,12.5c-7.3,3.1 -14.9,4.7 -22.9,4.8l-1.2,0l48.6,48.4l-60.4,0c-0.2,0 -0.5,0 -0.7,0c-0.1,0 -0.2,0 -0.4,0c0,0 -0.1,0 -0.1,0l0,-7.5l-0.1,0z" fill-rule="evenodd" clip-rule="evenodd" stroke="#d90368" fill="#d90368" stroke-miterlimit="10" id="svg_2"/>
   <path stroke="#d90368" class="st1" d="m132.5,40.4566l4.1,0m-4.1,30.01748l4.1,0m-32.5,-30.01748l28.3,0m-54.3,0l4.5,0m-37.4,90.05243l5.3,0m11.7,-29.91808l31.3,0m39,0l4.1,0m-4.1,59.93556l4.1,0m-19.6,-59.93556l15.5,0m-58.6,29.91808l58.5,0m-35.8,-60.03496l35.9,0m0,120.16931l4.1,0m-14,-30.11687l9.8,0m-97.7,0l43.4,0m-16.2,30.11687l5.6,0m19.7,0l45.3,0m-105,-150.18679l20,0" fill-rule="evenodd" clip-rule="evenodd" stroke-width="17" stroke-linecap="round" stroke-linejoin="round" stroke-miterlimit="3" id="svg_3"/>
  </g>
  <rect id="svg_4" height="58.14696" width="56.54952" y="150.12792" x="154.52728" stroke="#151515" fill="#151515"/>
 </g>

</svg>